<svg xmlns="http://www.w3.org/2000/svg" width="320" height="220" viewBox="0 0 320 220">
  <defs>
    <filter id="rough" x="-20%" y="-20%" width="140%" height="140%">
      <feTurbulence type="fractalNoise" baseFrequency="0.055" numOctaves="4" seed="47" result="noise"/>
      <feDisplacementMap in="SourceGraphic" in2="noise" scale="5"/>
    </filter>
    <radialGradient id="m1">
      <stop offset="0" stop-color="#566849" stop-opacity=".68"/>
      <stop offset=".55" stop-color="#35442f" stop-opacity=".42"/>
      <stop offset="1" stop-color="#1c281d" stop-opacity="0"/>
    </radialGradient>
  </defs>
  <g filter="url(#rough)" opacity=".78">
    <ellipse cx="54" cy="178" rx="52" ry="28" fill="url(#m1)"/>
    <ellipse cx="91" cy="195" rx="44" ry="18" fill="url(#m1)"/>
    <ellipse cx="24" cy="202" rx="31" ry="18" fill="url(#m1)"/>
    <ellipse cx="247" cy="37" rx="54" ry="25" fill="url(#m1)"/>
    <ellipse cx="294" cy="18" rx="38" ry="20" fill="url(#m1)"/>
    <ellipse cx="220" cy="18" rx="29" ry="17" fill="url(#m1)"/>
  </g>
  <g fill="none" stroke="#4d6042" stroke-opacity=".42" stroke-linecap="round">
    <path d="M14 211 C34 183 47 177 71 167 C84 160 94 145 100 128"/>
    <path d="M286 2 C279 20 266 30 247 39 C231 47 223 57 215 73"/>
    <path d="M52 204 C63 188 74 183 85 178"/>
  </g>
</svg>
